<svg xmlns="http://www.w3.org/2000/svg" xmlns:svg="http://www.w3.org/2000/svg" id="Layer_1" width="24" height="24" enable-background="new 0 0 24 24" version="1.1" viewBox="0 0 24 24" xml:space="preserve"><metadata id="metadata4808"/><path id="path4801" d="M 22.5,14 H 14 v 8.5 c 0,0.276 -0.224,0.5 -0.5,0.5 h -4 C 9.224,23 9,22.776 9,22.5 V 14 H 0.5 C 0.224,14 0,13.776 0,13.5 v -4 C 0,9.224 0.224,9 0.5,9 H 9 V 0.5 C 9,0.224 9.224,0 9.5,0 h 4 C 13.776,0 14,0.224 14,0.5 V 9 h 8.5 C 22.776,9 23,9.224 23,9.5 v 4 c 0,0.276 -0.224,0.5 -0.5,0.5 z" style="clip-rule:evenodd;fill-rule:evenodd;fill:#b5b5b5;fill-opacity:1"/></svg>