<svg xmlns="http://www.w3.org/2000/svg" xmlns:svg="http://www.w3.org/2000/svg" style="enable-background:new 0 0 32 32.002" id="svg10" width="32" height="32.002" version="1.1" viewBox="0 0 32 32.002" xml:space="preserve"><metadata id="metadata16"/><g id="undo"><g id="g7"><path style="fill:#fff;fill-opacity:1" id="path3" d="M28.156,3.719c-4.957-4.957-13.605-4.961-18.559,0L4,9.32V4H0v12.007h12v-3.92H6.977l5.453-5.537 c3.445-3.449,9.453-3.449,12.898,0.004C27.051,8.277,28,10.566,28,13.088c0,2.357-0.949,4.646-2.672,6.373l-3.016,3.014 l2.828,2.828l3.016-3.008C30.633,19.809,32,16.512,32,13.088C32,9.496,30.633,6.199,28.156,3.719z"/><polygon style="fill:#fff;fill-opacity:1" id="polygon5" points="18.449 32.002 15.621 29.166 18.449 26.338 21.277 29.166"/></g></g></svg>