<svg xmlns="http://www.w3.org/2000/svg" xmlns:svg="http://www.w3.org/2000/svg" id="svg4" height="512" class="icon" version="1.1" viewBox="0 0 1024 1024"><metadata id="metadata10"/><path id="path2" d="m 597.78117,14.586637 v 86.323083 c 194.88741,39.51489 341.58924,211.82236 341.58924,418.3836 0,206.56123 -146.70183,378.82355 -341.58924,418.38359 V 1024 C 839.99612,983.2658 1024.7451,773.11435 1024.7451,519.29332 1024.7451,265.47228 839.99612,55.320838 597.78117,14.586637 Z M 85.39731,519.29332 c 0,-206.56124 146.70183,-378.86871 341.58924,-418.3836 V 14.586637 C 184.70386,55.320838 0,265.47228 0,519.29332 0,773.11436 184.70386,983.2658 426.96397,1024 V 937.67691 C 232.09914,898.11687 85.39731,725.85455 85.39731,519.29332 Z M 597.78117,775.46267 V 476.57208 H 725.31264 L 512.27096,220.96723 299.18412,476.57208 h 127.75727 v 298.89059 z" style="fill:#b5b5b5;opacity:1;fill-opacity:1"/></svg>